<svg width="112" height="23" viewBox="0 0 112 23" fill="none" xmlns="http://www.w3.org/2000/svg">
<path d="M-0.0079999 18V1.2H8.2C10.312 1.2 11.896 1.6 12.952 2.4C14.024 3.2 14.56 4.256 14.56 5.568C14.56 6.448 14.344 7.216 13.912 7.872C13.48 8.512 12.888 9.008 12.136 9.36C11.384 9.712 10.52 9.888 9.544 9.888L10 8.904C11.056 8.904 11.992 9.08 12.808 9.432C13.624 9.768 14.256 10.272 14.704 10.944C15.168 11.616 15.4 12.44 15.4 13.416C15.4 14.856 14.832 15.984 13.696 16.8C12.56 17.6 10.888 18 8.68 18H-0.0079999ZM3.856 15.072H8.392C9.4 15.072 10.16 14.912 10.672 14.592C11.2 14.256 11.464 13.728 11.464 13.008C11.464 12.304 11.2 11.784 10.672 11.448C10.16 11.096 9.4 10.92 8.392 10.92H3.568V8.088H7.72C8.664 8.088 9.384 7.928 9.88 7.608C10.392 7.272 10.648 6.768 10.648 6.096C10.648 5.44 10.392 4.952 9.88 4.632C9.384 4.296 8.664 4.128 7.72 4.128H3.856V15.072ZM26.0996 18V15.48L25.8596 14.928V10.416C25.8596 9.616 25.6116 8.992 25.1156 8.544C24.6356 8.096 23.8916 7.872 22.8836 7.872C22.1956 7.872 21.5156 7.984 20.8436 8.208C20.1876 8.416 19.6276 8.704 19.1636 9.072L17.8196 6.456C18.5236 5.96 19.3716 5.576 20.3636 5.304C21.3556 5.032 22.3636 4.896 23.3876 4.896C25.3556 4.896 26.8836 5.36 27.9716 6.288C29.0596 7.216 29.6036 8.664 29.6036 10.632V18H26.0996ZM22.1636 18.192C21.1556 18.192 20.2916 18.024 19.5716 17.688C18.8516 17.336 18.2996 16.864 17.9156 16.272C17.5316 15.68 17.3396 15.016 17.3396 14.28C17.3396 13.512 17.5236 12.84 17.8916 12.264C18.2756 11.688 18.8756 11.24 19.6916 10.92C20.5076 10.584 21.5716 10.416 22.8836 10.416H26.3156V12.6H23.2916C22.4116 12.6 21.8036 12.744 21.4676 13.032C21.1476 13.32 20.9876 13.68 20.9876 14.112C20.9876 14.592 21.1716 14.976 21.5396 15.264C21.9236 15.536 22.4436 15.672 23.0996 15.672C23.7236 15.672 24.2836 15.528 24.7796 15.24C25.2756 14.936 25.6356 14.496 25.8596 13.92L26.4356 15.648C26.1636 16.48 25.6676 17.112 24.9476 17.544C24.2276 17.976 23.2996 18.192 22.1636 18.192ZM40.9401 4.896C41.9641 4.896 42.8761 5.104 43.6761 5.52C44.4921 5.92 45.1321 6.544 45.5961 7.392C46.0601 8.224 46.2921 9.296 46.2921 10.608V18H42.5481V11.184C42.5481 10.144 42.3161 9.376 41.8521 8.88C41.4041 8.384 40.7641 8.136 39.9321 8.136C39.3401 8.136 38.8041 8.264 38.3241 8.52C37.8601 8.76 37.4921 9.136 37.2201 9.648C36.9641 10.16 36.8361 10.816 36.8361 11.616V18H33.0921V5.088H36.6681V8.664L35.9961 7.584C36.4601 6.72 37.1241 6.056 37.9881 5.592C38.8521 5.128 39.8361 4.896 40.9401 4.896ZM55.4236 18.192C54.2076 18.192 53.1116 17.92 52.1356 17.376C51.1596 16.816 50.3836 16.04 49.8076 15.048C49.2476 14.056 48.9676 12.888 48.9676 11.544C48.9676 10.184 49.2476 9.008 49.8076 8.016C50.3836 7.024 51.1596 6.256 52.1356 5.712C53.1116 5.168 54.2076 4.896 55.4236 4.896C56.5116 4.896 57.4636 5.136 58.2796 5.616C59.0956 6.096 59.7276 6.824 60.1756 7.8C60.6236 8.776 60.8476 10.024 60.8476 11.544C60.8476 13.048 60.6316 14.296 60.1996 15.288C59.7676 16.264 59.1436 16.992 58.3276 17.472C57.5276 17.952 56.5596 18.192 55.4236 18.192ZM56.0716 15.12C56.6796 15.12 57.2316 14.976 57.7276 14.688C58.2236 14.4 58.6156 13.992 58.9036 13.464C59.2076 12.92 59.3596 12.28 59.3596 11.544C59.3596 10.792 59.2076 10.152 58.9036 9.624C58.6156 9.096 58.2236 8.688 57.7276 8.4C57.2316 8.112 56.6796 7.968 56.0716 7.968C55.4476 7.968 54.8876 8.112 54.3916 8.4C53.8956 8.688 53.4956 9.096 53.1916 9.624C52.9036 10.152 52.7596 10.792 52.7596 11.544C52.7596 12.28 52.9036 12.92 53.1916 13.464C53.4956 13.992 53.8956 14.4 54.3916 14.688C54.8876 14.976 55.4476 15.12 56.0716 15.12ZM59.4556 18V15.36L59.5276 11.52L59.2876 7.704V0.191999H63.0316V18H59.4556ZM74.5168 18V15.48L74.2768 14.928V10.416C74.2768 9.616 74.0288 8.992 73.5328 8.544C73.0528 8.096 72.3088 7.872 71.3008 7.872C70.6128 7.872 69.9328 7.984 69.2608 8.208C68.6048 8.416 68.0448 8.704 67.5808 9.072L66.2368 6.456C66.9408 5.96 67.7888 5.576 68.7808 5.304C69.7728 5.032 70.7808 4.896 71.8048 4.896C73.7728 4.896 75.3008 5.36 76.3888 6.288C77.4768 7.216 78.0208 8.664 78.0208 10.632V18H74.5168ZM70.5808 18.192C69.5728 18.192 68.7088 18.024 67.9888 17.688C67.2688 17.336 66.7168 16.864 66.3328 16.272C65.9488 15.68 65.7568 15.016 65.7568 14.28C65.7568 13.512 65.9408 12.84 66.3088 12.264C66.6928 11.688 67.2928 11.24 68.1088 10.92C68.9248 10.584 69.9888 10.416 71.3008 10.416H74.7328V12.6H71.7088C70.8288 12.6 70.2208 12.744 69.8848 13.032C69.5648 13.32 69.4048 13.68 69.4048 14.112C69.4048 14.592 69.5888 14.976 69.9568 15.264C70.3408 15.536 70.8608 15.672 71.5168 15.672C72.1408 15.672 72.7008 15.528 73.1968 15.24C73.6928 14.936 74.0528 14.496 74.2768 13.92L74.8528 15.648C74.5808 16.48 74.0848 17.112 73.3648 17.544C72.6448 17.976 71.7168 18.192 70.5808 18.192ZM87.675 22.848C86.459 22.848 85.283 22.696 84.147 22.392C83.027 22.104 82.091 21.664 81.339 21.072L82.827 18.384C83.371 18.832 84.059 19.184 84.891 19.44C85.739 19.712 86.571 19.848 87.387 19.848C88.715 19.848 89.675 19.552 90.267 18.96C90.875 18.368 91.179 17.488 91.179 16.32V14.376L91.419 11.136L91.371 7.872V5.088H94.923V15.84C94.923 18.24 94.299 20.008 93.051 21.144C91.803 22.28 90.011 22.848 87.675 22.848ZM87.099 17.376C85.899 17.376 84.811 17.12 83.835 16.608C82.875 16.08 82.099 15.352 81.507 14.424C80.931 13.48 80.643 12.384 80.643 11.136C80.643 9.872 80.931 8.776 81.507 7.848C82.099 6.904 82.875 6.176 83.835 5.664C84.811 5.152 85.899 4.896 87.099 4.896C88.187 4.896 89.147 5.12 89.979 5.568C90.811 6 91.459 6.68 91.923 7.608C92.387 8.52 92.619 9.696 92.619 11.136C92.619 12.56 92.387 13.736 91.923 14.664C91.459 15.576 90.811 16.256 89.979 16.704C89.147 17.152 88.187 17.376 87.099 17.376ZM87.843 14.304C88.499 14.304 89.083 14.176 89.595 13.92C90.107 13.648 90.507 13.272 90.795 12.792C91.083 12.312 91.227 11.76 91.227 11.136C91.227 10.496 91.083 9.944 90.795 9.48C90.507 9 90.107 8.632 89.595 8.376C89.083 8.104 88.499 7.968 87.843 7.968C87.187 7.968 86.603 8.104 86.091 8.376C85.579 8.632 85.171 9 84.867 9.48C84.579 9.944 84.435 10.496 84.435 11.136C84.435 11.76 84.579 12.312 84.867 12.792C85.171 13.272 85.579 13.648 86.091 13.92C86.603 14.176 87.187 14.304 87.843 14.304ZM104.916 18.192C103.444 18.192 102.148 17.904 101.028 17.328C99.9237 16.752 99.0677 15.968 98.4597 14.976C97.8517 13.968 97.5477 12.824 97.5477 11.544C97.5477 10.248 97.8437 9.104 98.4357 8.112C99.0437 7.104 99.8677 6.32 100.908 5.76C101.948 5.184 103.124 4.896 104.436 4.896C105.7 4.896 106.836 5.168 107.844 5.712C108.868 6.24 109.676 7.008 110.268 8.016C110.86 9.008 111.156 10.2 111.156 11.592C111.156 11.736 111.148 11.904 111.132 12.096C111.116 12.272 111.1 12.44 111.084 12.6H100.596V10.416H109.116L107.676 11.064C107.676 10.392 107.54 9.808 107.268 9.312C106.996 8.816 106.62 8.432 106.14 8.16C105.66 7.872 105.1 7.728 104.46 7.728C103.82 7.728 103.252 7.872 102.756 8.16C102.276 8.432 101.9 8.824 101.628 9.336C101.356 9.832 101.22 10.424 101.22 11.112V11.688C101.22 12.392 101.372 13.016 101.676 13.56C101.996 14.088 102.436 14.496 102.996 14.784C103.572 15.056 104.244 15.192 105.012 15.192C105.7 15.192 106.3 15.088 106.812 14.88C107.34 14.672 107.82 14.36 108.252 13.944L110.244 16.104C109.652 16.776 108.908 17.296 108.012 17.664C107.116 18.016 106.084 18.192 104.916 18.192Z" fill="#252B42"/>
</svg>
